HIERARCHY
ROOT Hips
{
    OFFSET 0.000000 0.000000 0.000000
    CHANNELS 6 Xposition Yposition Zposition Zrotation Xrotation Yrotation
    JOINT Spine
    {
        OFFSET -0.000000 7.236184 0.000000
        CHANNELS 3 Zrotation Xrotation Yrotation
        JOINT Spine1
        {
            OFFSET -0.000000 20.420147 0.000000
            CHANNELS 3 Zrotation Xrotation Yrotation
            JOINT Neck
            {
                OFFSET -0.000000 20.336288 1.848754
                CHANNELS 3 Zrotation Xrotation Yrotation
                JOINT Head
                {
                    OFFSET -0.000000 12.354461 -1.764923
                    CHANNELS 3 Zrotation Xrotation Yrotation
                    End Site
                    {
                        OFFSET -0.000000 22.061537 0.000000
                    }
                }
            }
            JOINT LeftShoulder
            {
                OFFSET 3.573296 18.396038 -0.314103
                CHANNELS 3 Zrotation Xrotation Yrotation
                JOINT LeftArm
                {
                    OFFSET 10.880760 0.000000 0.000000
                    CHANNELS 3 Zrotation Xrotation Yrotation
                    JOINT LeftForeArm
                    {
                        OFFSET 27.185530 0.000000 0.000000
                        CHANNELS 3 Zrotation Xrotation Yrotation
                        JOINT LeftHand
                        {
                            OFFSET 27.825975 0.000000 0.000000
                            CHANNELS 3 Zrotation Xrotation Yrotation
                            End Site
                            {
                                OFFSET 13.236923 0.000000 0.000000
                            }
                        }
                    }
                }
            }
            JOINT RightShoulder
            {
                OFFSET -3.474926 18.396038 -0.314103
                CHANNELS 3 Zrotation Xrotation Yrotation
                JOINT RightArm
                {
                    OFFSET -10.880760 0.000000 0.000000
                    CHANNELS 3 Zrotation Xrotation Yrotation
                    JOINT RightForeArm
                    {
                        OFFSET -27.185530 0.000000 0.000000
                        CHANNELS 3 Zrotation Xrotation Yrotation
                        JOINT RightHand
                        {
                            OFFSET -27.825975 0.000000 0.000000
                            CHANNELS 3 Zrotation Xrotation Yrotation
                            End Site
                            {
                                OFFSET -13.236923 0.000000 0.000000
                            }
                        }
                    }
                }
            }
        }
    }
    JOINT LeftUpLeg
    {
        OFFSET 8.824615 0.000000 0.000000
        CHANNELS 3 Zrotation Xrotation Yrotation
        JOINT LeftLeg
        {
            OFFSET -0.000000 -35.111282 0.000000
            CHANNELS 3 Zrotation Xrotation Yrotation
            JOINT LeftFoot
            {
                OFFSET -0.000000 -42.324711 0.000000
                CHANNELS 3 Zrotation Xrotation Yrotation
                JOINT LeftToeBase
                {
                    OFFSET -0.000000 -5.735999 13.236923
                    CHANNELS 3 Zrotation Xrotation Yrotation
                    End Site
                    {
                        OFFSET -0.000000 0.000000 3.529846
                    }
                }
            }
        }
    }
    JOINT RightUpLeg
    {
        OFFSET -8.824615 0.000000 0.000000
        CHANNELS 3 Zrotation Xrotation Yrotation
        JOINT RightLeg
        {
            OFFSET -0.000000 -35.111282 0.000000
            CHANNELS 3 Zrotation Xrotation Yrotation
            JOINT RightFoot
            {
                OFFSET -0.000000 -42.324711 0.000000
                CHANNELS 3 Zrotation Xrotation Yrotation
                JOINT RightToeBase
                {
                    OFFSET -0.000000 -5.735999 13.236923
                    CHANNELS 3 Zrotation Xrotation Yrotation
                    End Site
                    {
                        OFFSET -0.000000 0.000000 3.529846
                    }
                }
            }
        }
    }
}
MOTION
Frames:    8
Frame Time:    0.008333
-8.724952    81.432495    100.626411    3.881770    -11.111766    -175.769363    -2.255863    -14.571247    1.108069    3.215690    3.697450    1.292662    2.585124    5.755169    -7.538449    10.257116    -4.971967    -6.204218    -0.132333    18.248499    1.730376    -61.025940    25.503973    -21.629147    -2.383228    -6.600442    -7.517515    16.463800    -6.282417    3.293813    7.364501    17.587917    -7.911253    47.266155    38.627708    28.836330    -4.074081    -11.411673    24.996569    -13.207286    -10.112531    -3.617858    4.803132    -27.752150    -4.570783    0.745670    34.485188    7.142096    -4.055687    -15.467498    -12.149516    -0.422647    -1.065517    0.469397    -10.260997    -8.312350    -6.216167    3.010127    2.345048    -2.974388    10.254543    -1.895904    -9.662003    -0.360725    0.905121    0.389672    
-8.926102    81.526253    100.632164    3.923049    -11.140905    -176.022675    -2.352737    -14.447136    1.046790    3.307764    3.522515    1.243340    2.706196    5.665322    -7.570265    10.435019    -5.011949    -6.214910    -0.014511    18.156179    1.597370    -61.128674    25.293001    -21.206924    -2.488206    -6.442754    -7.267591    16.390221    -6.108826    3.429079    7.402754    17.500471    -8.024537    47.497700    38.202072    28.598976    -3.952623    -11.486926    24.421843    -13.509147    -10.240831    -3.487081    4.883006    -27.534966    -4.119859    0.779180    34.133057    6.968498    -3.992330    -15.367215    -12.148030    -0.448365    -1.034240    0.497930    -10.659613    -9.379960    -5.940030    3.356421    3.976453    -3.355704    10.662546    -1.458872    -9.473042    -0.349553    0.390485    0.377867    
-9.125966    81.622284    100.639702    3.966024    -11.170578    -176.285034    -2.442451    -14.323586    0.986035    3.399826    3.350511    1.193542    2.832610    5.577879    -7.593763    10.597899    -5.054571    -6.220031    0.101957    18.064138    1.465937    -61.227695    25.095928    -20.791994    -2.591189    -6.283661    -7.025488    16.319262    -5.934316    3.558764    7.439036    17.414309    -8.133932    47.716599    37.776474    28.371355    -3.845958    -11.561918    23.852434    -13.811452    -10.362426    -3.377448    4.966058    -27.313208    -3.676844    0.803209    33.773022    6.809685    -3.927066    -15.264318    -12.141170    -0.473628    -1.003040    0.525957    -11.057203    -10.466311    -5.676218    3.721999    5.626477    -3.741263    11.076340    -1.004919    -9.282948    -0.339461    -0.118001    0.367213    
-9.324839    81.723228    100.650642    4.012672    -11.201743    -176.566269    -2.518509    -14.198965    0.925929    3.491783    3.180501    1.142664    2.964105    5.490407    -7.602736    10.738767    -5.096837    -6.214698    0.218166    17.972616    1.336595    -61.324654    24.921083    -20.389471    -2.687918    -6.120451    -6.794991    16.254667    -5.756279    3.680274    7.470490    17.329399    -8.236079    47.924156    37.352093    28.152624    -3.752192    -11.632705    23.290598    -14.117210    -10.473644    -3.289215    5.057138    -27.081671    -3.245068    0.812284    33.395977    6.678401    -3.857987    -15.156140    -12.125304    -0.498011    -0.971096    0.553001    -11.461965    -11.589338    -5.425479    4.120790    7.314774    -4.133046    11.502567    -0.518390    -9.089065    -0.327376    -0.630061    0.354391    
-9.521743    81.830444    100.666069    4.065325    -11.234252    -176.872482    -2.574633    -14.072080    0.866929    3.583855    3.012836    1.090534    3.099444    5.401280    -7.592150    10.851015    -5.135584    -6.195152    0.333580    17.882687    1.211034    -61.420040    24.775393    -20.006174    -2.775182    -5.952500    -6.580726    16.198494    -5.574282    3.791318    7.494754    17.245966    -8.328174    48.119549    36.934368    27.943272    -3.671847    -11.696733    22.742031    -14.426940    -10.571548    -3.223304    5.160784    -26.836878    -2.829373    0.802163    32.997135    6.585437    -3.784417    -15.041164    -12.098169    -0.520664    -0.938456    0.578121    -11.876560    -12.757287    -5.193390    4.560633    9.048405    -4.532153    11.945066    0.009852    -8.887807    -0.310634    -1.147227    0.336509    
-9.716816    81.945190    100.686768    4.126357    -11.268153    -177.209305    -2.606732    -13.941247    0.809243    3.677901    2.846639    1.036600    3.238138    5.309121    -7.558309    10.929428    -5.168258    -6.158804    0.447825    17.795252    1.090832    -61.514061    24.664320    -19.646023    -2.851675    -5.780553    -6.386764    16.150860    -5.389132    3.892028    7.509619    17.164011    -8.409383    48.302872    36.526321    27.742897    -3.605177    -11.752992    22.209435    -14.739432    -10.655251    -3.178523    5.281005    -26.575090    -2.430965    0.770575    32.571045    6.538988    -3.705899    -14.917414    -12.059845    -0.540728    -0.904402    0.600362    -12.304394    -13.982041    -4.987745    5.048110    10.840848    -4.939534    12.408951    0.587001    -8.676536    -0.286693    -1.668906    0.310803    
-9.910600    82.068382    100.713135    4.197892    -11.302967    -177.581329    -2.612260    -13.804553    0.752530    3.776411    2.681273    0.980399    3.379998    5.212460    -7.498507    10.969981    -5.192389    -6.103895    0.560251    17.712055    0.978205    -61.605297    24.592012    -19.313505    -2.917657    -5.607045    -6.216050    16.110666    -5.203373    3.983070    7.513288    17.082518    -8.479542    48.474834    36.130272    27.549643    -3.552711    -11.802254    21.694626    -15.049609    -10.725942    -3.152045    5.421204    -26.292160    -2.049270    0.716348    32.112633    6.544407    -3.621520    -14.783140    -12.010979    -0.556989    -0.867629    0.618374    -12.749086    -15.275016    -4.818146    5.588449    12.707041    -5.354204    12.898828    1.216401    -8.456479    -0.253070    -2.188891    0.274555    
-10.104069    82.200661    100.745377    4.281710    -11.337920    -177.992630    -2.590118    -13.659691    0.696152    3.882374    2.516112    0.921216    3.525703    5.110321    -7.410617    10.969097    -5.206775    -6.029142    0.670665    17.633738    0.874713    -61.692314    24.561539    -19.010866    -2.974466    -5.435739    -6.071950    16.075340    -5.020885    4.065806    7.504300    17.000631    -8.539612    48.636902    35.743633    27.361145    -3.512668    -11.843968    21.198927    -15.350938    -10.784166    -3.139867    5.583898    -25.983364    -1.681496    0.640026    31.616478    6.605000    -3.530684    -14.636467    -11.953894    -0.567789    -0.826932    0.630317    -13.215312    -16.648327    -4.695611    6.187016    14.664404    -5.774731    13.418453    1.898063    -8.232450    -0.206891    -2.697971    0.224621    
